<?xml version="1.0" standalone="no"?>
<!DOCTYPE svg PUBLIC "-//W3C//DTD SVG 20010904//EN"
 "http://www.w3.org/TR/2001/REC-SVG-20010904/DTD/svg10.dtd">
<svg version="1.0" xmlns="http://www.w3.org/2000/svg"
 width="1024.000000pt" height="1024.000000pt" viewBox="0 0 1024.000000 1024.000000"
 preserveAspectRatio="xMidYMid meet">

<g transform="translate(0.000000,1024.000000) scale(0.100000,-0.100000)"
fill="#000000" stroke="none">
<path d="M4620 9184 c-630 -55 -1273 -248 -1778 -535 -480 -273 -903 -641
-1238 -1079 -433 -564 -744 -1292 -833 -1950 -22 -159 -40 -383 -32 -392 3 -3
84 -10 178 -14 l173 -7 1 449 c0 343 4 458 14 489 11 34 13 -29 14 -447 l1
-488 54 0 53 0 5 638 5 637 42 95 c100 225 346 652 392 681 6 3 11 10 12 15 1
5 6 8 10 6 5 -1 6 1 3 6 -7 13 23 53 35 46 5 -3 7 -14 4 -24 -3 -10 -2 -21 3
-24 9 -6 9 44 0 60 -4 5 7 25 24 44 16 19 27 29 23 22 -4 -7 -1 -20 6 -28 6
-8 8 -18 4 -22 -4 -4 -10 -1 -12 6 -8 21 -20 13 -19 -13 2 -34 12 -40 26 -16
13 25 23 26 44 5 19 -18 22 -4 4 15 -10 11 -10 12 -1 7 7 -4 21 -2 30 3 16 9
16 10 -4 11 -38 0 -25 16 14 17 37 1 63 -15 63 -38 0 -10 3 -10 11 -2 8 8 5
17 -11 33 -24 24 -20 41 5 20 13 -10 15 -9 15 9 0 11 5 21 11 21 7 0 9 -10 5
-24 -8 -32 2 -56 23 -55 10 0 11 2 4 6 -24 9 -14 32 11 27 15 -2 26 2 30 11 7
18 27 20 21 3 -6 -17 22 -54 32 -43 5 4 3 10 -4 12 -10 3 -10 9 0 24 14 23 37
25 37 4 0 -8 7 -15 15 -15 8 0 15 5 15 10 0 6 5 10 10 10 6 0 10 -7 10 -15 0
-8 5 -15 10 -15 6 0 10 5 10 11 0 6 9 8 20 4 11 -4 20 -2 20 4 0 6 8 11 18 11
13 0 14 -2 3 -9 -9 -6 2 -10 35 -14 27 -2 63 -9 80 -14 32 -11 34 -10 35 42 0
20 0 20 17 -1 23 -29 50 -37 54 -17 2 10 15 17 36 18 29 2 32 0 26 -17 -4 -15
-2 -19 7 -15 8 2 13 9 12 15 -2 6 4 9 12 6 8 -4 15 -2 15 4 0 6 -12 15 -27 21
l-28 11 27 -5 c16 -3 28 0 31 8 2 6 8 8 13 4 5 -4 3 -12 -4 -16 -21 -13 12
-35 35 -23 13 7 26 4 51 -13 22 -15 29 -25 20 -28 -9 -4 -8 -6 3 -6 13 -1 16
7 15 39 -1 22 1 40 6 40 12 0 26 -34 20 -50 -4 -11 -1 -10 12 3 10 10 15 24
12 32 -7 19 13 30 27 16 9 -9 7 -11 -8 -5 -16 6 -18 4 -8 -6 8 -8 9 -19 3 -29
-5 -11 -2 -24 11 -40 10 -13 19 -18 19 -13 0 6 -4 14 -10 17 -12 8 -13 45 -1
45 5 0 11 9 14 20 3 11 12 20 20 20 12 0 13 -7 6 -37 -11 -47 -10 -64 1 -38 6
15 9 16 9 4 1 -25 26 -18 27 7 1 15 -3 21 -12 17 -20 -8 -17 10 5 26 12 9 17
21 13 35 -4 17 -2 19 9 8 11 -10 11 -16 1 -33 -16 -24 -9 -37 11 -21 8 7 16 9
20 6 3 -3 3 3 0 15 -6 22 12 30 20 9 3 -8 6 -6 6 4 1 11 6 15 15 12 8 -3 23
-1 33 5 17 10 17 10 1 11 -10 0 -18 5 -18 11 0 6 7 8 15 5 9 -3 18 1 22 9 4
13 8 12 23 -4 12 -15 20 -17 28 -9 7 7 15 8 19 4 5 -4 -3 -17 -17 -28 -14 -12
-20 -19 -14 -17 20 7 146 130 140 136 -3 4 -6 1 -6 -5 0 -7 -8 -5 -20 5 -11
10 -20 21 -20 26 0 5 7 1 16 -8 13 -12 19 -13 24 -5 6 9 9 9 12 -1 3 -8 33 10
83 50 277 220 638 404 952 486 301 79 709 100 1023 54 387 -56 782 -226 1104
-473 43 -34 97 -75 120 -92 23 -17 64 -53 92 -80 77 -74 111 -103 94 -79 -8
11 -21 24 -28 28 -9 6 -8 13 5 31 14 19 21 21 36 12 14 -9 20 -8 27 4 8 11 9
5 5 -20 -3 -22 -2 -30 4 -21 6 9 11 10 15 2 4 -6 19 -11 33 -11 17 0 23 -4 20
-14 -4 -10 0 -12 16 -8 12 3 16 7 9 10 -18 6 -14 22 6 22 9 0 26 -13 37 -29
l19 -29 18 20 c14 16 21 18 32 9 11 -9 15 -9 19 1 4 10 8 10 16 -2 5 -8 13
-11 18 -7 4 5 1 12 -6 16 -11 7 -11 10 0 17 7 4 14 3 17 -4 2 -7 10 -12 19
-12 25 0 10 -35 -17 -38 -14 -2 -29 -7 -34 -12 -5 -5 9 -4 30 2 22 5 48 9 59
9 20 0 20 0 1 14 -26 20 -12 32 18 16 13 -8 29 -10 35 -7 6 4 11 3 11 -3 0 -5
-5 -11 -12 -13 -8 -3 -6 -7 5 -11 10 -4 16 -2 14 5 -1 7 7 14 17 16 14 3 17 0
13 -11 -4 -11 1 -14 18 -13 19 1 21 4 12 15 -10 12 -9 14 5 8 26 -9 31 9 8 26
-19 13 -19 15 -3 28 9 8 14 9 10 2 -4 -6 4 -23 17 -38 22 -23 25 -24 34 -10 5
11 18 15 33 13 24 -4 24 -5 -6 -17 -23 -10 -26 -14 -15 -21 8 -6 20 -10 25
-10 6 0 3 5 -5 10 -11 7 -1 9 31 7 26 -1 45 -5 42 -9 -2 -5 5 -8 16 -8 10 0
22 6 24 13 4 7 6 6 6 -4 1 -21 48 -34 67 -18 11 9 14 7 14 -10 0 -11 5 -21 11
-21 6 0 9 6 6 14 -7 18 18 42 28 26 3 -5 4 -14 0 -19 -3 -5 -1 -12 5 -16 9 -6
14 10 13 43 -1 6 3 12 8 12 5 0 9 -9 9 -20 0 -11 5 -20 11 -20 6 0 9 6 6 14
-3 8 1 17 9 20 9 3 12 1 9 -4 -3 -6 -1 -10 4 -10 6 0 11 -5 11 -11 0 -5 -4 -7
-10 -4 -5 3 -10 -1 -10 -9 0 -9 6 -13 14 -10 9 3 16 -2 19 -13 2 -11 3 -9 2 5
-1 12 2 22 6 22 5 0 9 8 9 18 0 14 -2 15 -10 2 -8 -13 -10 -12 -10 3 0 21 18
23 26 2 9 -22 24 -18 24 5 0 11 5 20 10 20 6 0 10 -4 10 -10 0 -5 15 -10 33
-10 25 0 29 -3 17 -10 -13 -9 -12 -13 9 -30 33 -28 41 -25 42 18 1 33 2 34 9
12 4 -14 5 -35 3 -47 -3 -13 0 -23 6 -23 6 0 11 18 11 43 0 31 4 44 14 44 12
0 13 -5 5 -19 -6 -11 -8 -27 -6 -36 3 -12 5 -11 6 6 0 12 6 22 11 22 9 0 14
-23 13 -57 -1 -7 6 -13 13 -13 12 0 12 4 4 21 -6 11 -9 28 -7 37 4 16 5 16 6
0 0 -10 6 -18 12 -18 7 0 9 11 6 28 -4 20 -2 17 10 -10 9 -21 19 -38 22 -38 3
0 12 13 19 30 12 26 16 28 28 16 18 -19 18 -26 -2 -26 -10 0 -14 -6 -10 -15 3
-9 0 -15 -9 -15 -8 0 -15 -4 -15 -10 0 -16 15 -12 35 10 18 20 18 20 41 -8 19
-21 24 -23 24 -9 0 9 -4 17 -10 17 -5 0 -10 9 -10 20 0 25 15 26 25 3 6 -17 8
-17 21 2 8 11 20 20 27 21 16 0 37 -16 37 -30 0 -6 -5 -4 -10 4 -9 13 -12 13
-21 -3 -6 -9 -14 -15 -20 -12 -15 10 -10 -12 7 -26 14 -11 15 -10 12 6 -2 16
3 20 25 20 20 1 27 -4 27 -18 0 -11 4 -15 12 -11 8 5 9 2 5 -9 -4 -10 -2 -16
5 -14 14 3 149 -184 231 -321 71 -118 98 -167 175 -318 l52 -101 0 -546 0
-547 90 0 90 0 1 308 1 307 30 -90 c30 -87 31 -97 35 -307 l5 -217 139 0 c161
-1 147 -16 124 137 -147 976 -664 1885 -1445 2542 -252 212 -428 333 -710 488
-489 268 -1018 441 -1591 518 -109 15 -677 28 -789 18z m2520 -884 l45 -30
-2254 0 c-1240 0 -2251 3 -2247 7 3 4 23 17 44 29 l37 22 2165 1 2165 1 45
-30z m-620 -650 c-8 -5 -19 -10 -25 -10 -5 0 -3 5 5 10 8 5 20 10 25 10 6 0 3
-5 -5 -10z m-3290 -4 c0 -2 -7 -9 -15 -16 -13 -11 -14 -10 -9 4 5 14 24 23 24
12z m3336 -38 c4 -7 3 -8 -4 -4 -7 4 -12 2 -12 -5 0 -7 -3 -10 -6 -6 -6 5 3
27 11 27 2 0 7 -5 11 -12z m-3386 -35 c0 -13 -29 -32 -35 -23 -4 6 -11 7 -17
4 -6 -4 -5 -9 3 -15 20 -12 -4 -33 -41 -35 -26 -1 -28 1 -19 17 9 18 12 18 25
4 9 -8 20 -12 26 -9 6 4 6 9 -3 14 -18 12 7 41 28 33 12 -5 15 -2 10 10 -4 11
-2 14 9 10 7 -3 14 -7 14 -10z m3434 -22 c10 -11 23 -18 27 -15 5 3 9 1 9 -5
0 -21 -17 -15 -55 23 -22 21 -31 34 -20 28 11 -6 29 -19 39 -31z m263 -13 c-3
-8 -6 -5 -6 6 -1 11 2 17 5 13 3 -3 4 -12 1 -19z m-87 -14 c0 -14 -4 -23 -9
-20 -5 3 -7 15 -4 26 7 28 13 25 13 -6z m410 12 c0 -2 -7 -7 -16 -10 -8 -3
-12 -2 -9 4 6 10 25 14 25 6z m821 -13 c13 -16 12 -17 -3 -4 -10 7 -18 15 -18
17 0 8 8 3 21 -13z m-1138 -21 c-4 -10 -2 -13 5 -8 17 10 23 -10 7 -24 -12
-10 -15 -10 -15 3 0 8 -7 20 -15 27 -21 17 -19 29 4 23 13 -3 18 -10 14 -21z
m152 18 c-3 -5 -10 -10 -16 -10 -5 0 -9 5 -9 10 0 6 7 10 16 10 8 0 12 -4 9
-10z m-4165 -14 c0 -3 -4 -8 -10 -11 -5 -3 -10 -1 -10 4 0 6 5 11 10 11 6 0
10 -2 10 -4z m4085 -15 c-3 -6 -11 -8 -17 -5 -6 4 -5 9 3 15 16 10 23 4 14
-10z m178 -4 c-2 -4 -5 -7 -8 -7 -3 0 -12 0 -20 0 -8 0 -15 4 -15 10 0 5 10 8
23 6 12 -1 21 -6 20 -9z m921 -17 c-6 -6 -10 -3 -10 10 0 13 4 16 10 10 7 -7
7 -13 0 -20z m-614 0 c0 -11 -4 -20 -8 -20 -4 0 -8 9 -8 20 0 11 4 20 8 20 4
0 8 -9 8 -20z m27 0 c-4 -15 0 -20 13 -20 14 0 17 6 13 23 -4 19 -3 20 7 4 14
-21 5 -37 -20 -37 -23 0 -32 13 -24 34 9 23 17 20 11 -4z m-4824 -5 c-3 -9 -8
-14 -10 -11 -3 3 -2 9 2 15 9 16 15 13 8 -4z m5374 -8 c6 2 15 -1 19 -8 5 -8
3 -9 -6 -4 -7 4 -15 3 -19 -2 -3 -6 -14 -2 -26 10 l-20 20 20 -10 c11 -6 25
-8 32 -6z m-6202 -17 c-3 -5 -11 -10 -16 -10 -6 0 -7 5 -4 10 3 6 11 10 16 10
6 0 7 -4 4 -10z m376 0 c10 -6 19 -16 19 -22 0 -6 -9 -3 -19 6 -11 10 -25 15
-30 11 -6 -3 -11 -1 -11 4 0 14 16 14 41 1z m132 3 c-7 -2 -19 -2 -25 0 -7 3
-2 5 12 5 14 0 19 -2 13 -5z m190 0 c-7 -2 -19 -2 -25 0 -7 3 -2 5 12 5 14 0
19 -2 13 -5z m5440 0 c-7 -2 -19 -2 -25 0 -7 3 -2 5 12 5 14 0 19 -2 13 -5z
m145 -11 c5 -17 -25 -15 -31 2 -4 9 0 13 11 12 9 -2 18 -8 20 -14z m-5628 -1
c0 -6 -4 -13 -10 -16 -5 -3 -10 1 -10 9 0 9 5 16 10 16 6 0 10 -4 10 -9z
m-140 -11 c-20 -13 -33 -13 -25 0 3 6 14 10 23 10 15 0 15 -2 2 -10z m380 0
c24 -15 7 -18 -20 -3 -14 7 -18 13 -10 13 8 0 22 -4 30 -10z m5066 -17 c-10
-10 -19 5 -10 18 6 11 8 11 12 0 2 -7 1 -15 -2 -18z m-5376 -3 c0 -5 -15 -10
-32 -10 -25 0 -29 3 -18 10 20 13 50 13 50 0z"/>
<path d="M6680 7509 c0 -5 5 -7 10 -4 6 3 10 8 10 11 0 2 -4 4 -10 4 -5 0 -10
-5 -10 -11z"/>
<path d="M2966 7435 c-3 -8 -1 -15 4 -15 6 0 10 7 10 15 0 8 -2 15 -4 15 -2 0
-6 -7 -10 -15z"/>
<path d="M2831 7424 c0 -11 3 -14 6 -6 3 7 2 16 -1 19 -3 4 -6 -2 -5 -13z"/>
<path d="M3045 7429 c-4 -6 -5 -12 -2 -15 2 -3 7 2 10 11 7 17 1 20 -8 4z"/>
<path d="M6810 7419 c0 -5 5 -7 10 -4 6 3 10 8 10 11 0 2 -4 4 -10 4 -5 0 -10
-5 -10 -11z"/>
<path d="M7037 7419 c7 -7 15 -10 18 -7 3 3 -2 9 -12 12 -14 6 -15 5 -6 -5z"/>
<path d="M7250 7420 c-8 -5 -12 -12 -9 -15 4 -3 12 1 19 10 14 17 11 19 -10 5z"/>
<path d="M7692 7418 c6 -18 28 -21 28 -4 0 9 -7 16 -16 16 -9 0 -14 -5 -12
-12z"/>
<path d="M6990 7410 c0 -5 5 -10 10 -10 6 0 10 5 10 10 0 6 -4 10 -10 10 -5 0
-10 -4 -10 -10z"/>
<path d="M7088 7413 c7 -3 16 -2 19 1 4 3 -2 6 -13 5 -11 0 -14 -3 -6 -6z"/>
<path d="M7148 7413 c7 -3 16 -2 19 1 4 3 -2 6 -13 5 -11 0 -14 -3 -6 -6z"/>
<path d="M7192 7406 c7 -8 15 -12 17 -11 5 6 -10 25 -20 25 -5 0 -4 -6 3 -14z"/>
<path d="M7347 7400 c3 -11 7 -20 9 -20 2 0 4 9 4 20 0 11 -4 20 -9 20 -5 0
-7 -9 -4 -20z"/>
<path d="M2907 7396 c-4 -10 -1 -13 9 -9 15 6 19 23 5 23 -5 0 -11 -7 -14 -14z"/>
<path d="M2490 7390 c0 -5 5 -10 10 -10 6 0 10 5 10 10 0 6 -4 10 -10 10 -5 0
-10 -4 -10 -10z"/>
<path d="M2576 7384 c-9 -8 -16 -18 -16 -20 0 -7 38 15 45 26 10 16 -12 12
-29 -6z"/>
<path d="M2618 7382 c-16 -17 -16 -18 2 -18 10 0 16 4 13 9 -3 5 9 6 28 2 l34
-6 -29 15 c-15 9 -29 16 -30 15 0 0 -9 -8 -18 -17z"/>
<path d="M2821 7384 c0 -11 3 -14 6 -6 3 7 2 16 -1 19 -3 4 -6 -2 -5 -13z"/>
<path d="M3005 7390 c-3 -5 -1 -10 4 -10 6 0 11 5 11 10 0 6 -2 10 -4 10 -3 0
-8 -4 -11 -10z"/>
<path d="M7650 7392 c0 -4 9 -8 19 -8 11 0 17 4 15 8 -3 4 -12 8 -20 8 -8 0
-14 -4 -14 -8z"/>
<path d="M3422 7361 c-47 -40 -125 -68 -260 -92 -191 -34 -277 -66 -366 -134
-28 -21 -43 -28 -38 -18 20 37 174 193 184 186 7 -3 8 -1 4 5 -4 7 -3 12 1 12
5 0 10 12 11 27 2 25 1 26 -18 8 -10 -9 -26 -15 -35 -11 -9 3 -13 2 -10 -4 3
-6 -1 -10 -9 -10 -22 0 -127 -64 -158 -97 -36 -38 -66 -108 -70 -164 l-3 -46
-65 0 c-86 1 -148 -27 -190 -84 -35 -49 -43 -73 -38 -120 4 -34 4 -34 15 -9
12 28 53 68 98 96 23 14 16 3 -28 -46 -65 -73 -115 -168 -147 -280 -38 -137
-37 -393 2 -525 10 -35 12 -37 15 -15 2 14 15 58 30 98 18 51 28 70 34 60 5
-7 9 -21 9 -30 0 -29 40 -137 78 -213 25 -50 59 -94 121 -156 47 -48 95 -91
106 -97 20 -11 20 -11 1 -47 -11 -20 -77 -94 -147 -163 -138 -139 -211 -240
-285 -396 -49 -104 -119 -308 -154 -454 -13 -51 -24 -91 -26 -89 -2 2 -48 139
-103 305 -137 414 -174 483 -288 539 -148 72 -288 19 -313 -118 -9 -50 1 -107
55 -299 24 -85 78 -285 120 -445 42 -159 96 -362 121 -450 24 -87 44 -165 44
-172 0 -9 -7 -9 -32 -1 -18 6 -37 15 -42 19 -5 5 -17 3 -25 -3 -13 -10 -14
-10 -4 1 13 16 6 44 -10 34 -5 -3 -7 -1 -4 5 21 32 -185 219 -271 246 l-23 8
2 -144 c1 -78 5 -163 8 -188 l5 -45 7 40 6 40 2 -42 c0 -24 4 -43 9 -43 4 0 6
21 3 46 -2 25 1 50 7 56 6 6 8 1 5 -16 -6 -27 13 -60 28 -50 17 10 49 -7 49
-26 0 -10 -4 -20 -8 -22 -4 -1 -2 -14 5 -28 12 -24 13 -23 13 18 0 27 4 41 10
37 6 -4 8 -11 4 -16 -3 -6 2 -9 12 -7 13 2 19 -3 19 -17 0 -11 7 -20 15 -21
39 -3 42 -5 36 -21 -6 -15 -5 -15 13 1 11 10 24 15 30 11 7 -3 8 0 5 9 -4 11
0 16 10 16 10 0 16 -8 16 -22 0 -21 1 -21 18 -5 14 15 15 19 3 26 -16 10 -8
41 11 40 10 0 10 -2 0 -6 -6 -2 -10 -9 -6 -14 8 -14 24 -11 24 6 0 17 16 20
25 5 3 -5 2 -10 -4 -10 -6 0 -13 -11 -17 -25 -3 -14 -10 -25 -15 -25 -5 0 -9
-4 -9 -10 0 -20 17 -10 30 18 l13 27 8 -25 c6 -23 7 -22 9 10 l2 35 8 -35 c5
-19 9 -151 10 -293 1 -362 17 -457 102 -619 50 -96 154 -208 234 -250 94 -51
146 -58 410 -58 l243 0 3 -32 c2 -18 1 -54 0 -80 -3 -42 -7 -48 -26 -48 -12 0
-31 -6 -42 -14 -17 -13 -19 -27 -19 -153 1 -152 8 -178 56 -195 28 -10 29 -12
29 -72 l0 -63 -57 -12 c-32 -7 -224 -53 -426 -103 -295 -72 -374 -96 -398
-115 -29 -24 -29 -26 -29 -127 0 -94 -2 -104 -23 -124 -20 -19 -35 -22 -98
-22 l-76 0 14 83 c21 135 35 385 24 444 -13 68 -28 90 -73 114 -33 17 -59 19
-213 19 -96 0 -175 3 -175 6 0 20 46 64 78 74 55 18 168 86 244 148 142 114
208 251 208 435 0 91 2 90 -117 52 -241 -76 -390 -279 -437 -597 -24 -164 -36
-144 -29 49 5 154 4 180 -16 268 -48 207 -162 369 -314 445 -44 23 -90 40
-102 38 -31 -5 -48 -68 -48 -188 -2 -182 49 -298 192 -441 66 -65 103 -94 158
-120 39 -19 74 -41 78 -49 3 -8 3 -38 -1 -67 l-6 -53 -39 0 c-38 0 -39 1 -73
75 -44 94 -77 138 -143 187 -103 76 -309 153 -358 134 -23 -9 -16 -55 21 -130
56 -116 196 -206 349 -226 160 -22 151 -37 -25 -42 -138 -4 -166 -14 -198 -72
-14 -26 -17 -56 -15 -178 0 -81 6 -189 13 -240 13 -107 55 -303 74 -350 34
-84 41 -78 -84 -78 -85 0 -111 -3 -107 -12 3 -10 888 -13 4383 -12 2408 0
4411 1 4449 1 39 0 139 0 224 -1 115 -1 155 2 158 12 4 9 -32 12 -154 12 -88
0 -162 3 -166 6 -3 3 3 30 14 61 31 91 50 210 56 354 9 203 -15 238 -165 240
l-81 1 10 27 c23 60 63 113 127 167 101 85 140 139 178 246 13 37 13 38 -11
38 -77 0 -207 -85 -245 -160 -23 -45 -56 -164 -65 -235 -10 -79 -13 -85 -46
-85 -27 0 -29 3 -29 38 -1 112 -62 241 -162 344 -76 77 -145 118 -198 118 -39
0 -40 -25 -1 -105 37 -77 81 -121 183 -183 109 -66 143 -105 162 -184 5 -23 3
-28 -12 -28 -14 0 -25 15 -41 59 -37 101 -118 154 -226 149 -53 -3 -60 -5 -57
-22 9 -53 81 -106 192 -141 90 -28 93 -41 13 -47 -142 -10 -159 -39 -150 -254
l6 -142 -112 -4 c-62 -1 -129 -1 -149 1 l-38 3 0 1199 0 1199 121 0 c156 0
160 3 153 83 -8 84 -19 111 -57 131 l-32 17 43 -5 42 -4 0 66 c0 37 3 188 7
335 5 225 4 270 -8 278 -10 6 -10 9 -1 9 9 0 12 80 12 365 l0 366 -87 -3 -88
-3 -5 -408 -5 -407 -35 28 c-19 15 -82 61 -140 102 -58 40 -107 74 -109 76 -1
1 13 29 33 61 35 57 45 96 27 107 -10 6 19 68 45 97 9 10 14 25 11 32 -3 8 1
25 10 37 14 20 14 24 -4 48 -28 38 -55 39 -86 3 -18 -22 -33 -29 -53 -28 -23
2 -34 -6 -63 -50 -20 -28 -44 -54 -53 -56 -9 -3 -40 -41 -70 -85 -48 -74 -57
-82 -103 -97 -63 -21 -196 -109 -255 -169 l-44 -46 44 -46 c73 -75 335 -274
361 -274 8 0 71 137 93 203 9 26 18 66 21 90 4 23 8 57 11 75 l5 34 27 -18
c15 -9 72 -48 127 -87 55 -39 102 -72 103 -73 2 -1 -52 -111 -120 -243 l-123
-241 -122 0 c-132 0 -153 -8 -153 -56 l0 -24 -132 0 c-122 1 -130 2 -101 15
17 7 36 22 42 34 14 26 14 226 0 253 -12 23 -67 48 -105 48 -19 0 -25 4 -20
15 3 8 3 29 -1 45 l-6 30 -246 -2 -246 -3 -3 -217 -2 -218 -125 0 c-125 0
-125 0 -120 23 2 12 12 155 21 317 9 162 18 297 20 300 3 2 114 8 247 12 133
4 267 13 297 18 69 13 122 48 146 97 18 37 19 75 19 1093 l0 1055 -22 48 c-27
59 -55 83 -108 95 -39 8 -84 5 -580 -33 -110 -9 -360 -27 -555 -40 -666 -46
-884 -65 -928 -81 -49 -18 -85 -61 -101 -119 -15 -56 -15 -2034 0 -2089 14
-49 55 -91 101 -104 25 -7 196 -3 547 11 281 11 514 17 517 14 7 -7 -31 -515
-39 -523 -3 -4 -184 -8 -402 -10 -218 -1 -405 -6 -415 -9 -12 -4 -22 -19 -26
-41 l-6 -34 -449 0 -449 0 0 21 c0 12 -16 43 -36 70 -43 59 -32 63 29 9 46
-41 74 -49 95 -28 19 19 15 33 -29 88 -56 71 -110 95 -199 86 -77 -7 -159 -32
-267 -82 -104 -48 -138 -48 -452 10 -139 25 -263 46 -274 46 -17 0 -19 4 -13
43 58 354 116 796 116 877 0 64 -23 113 -105 222 -84 112 -120 148 -157 155
l-29 6 28 17 c49 30 133 127 161 188 l28 58 35 -9 c61 -14 105 11 135 78 29
68 64 189 64 227 0 37 -33 58 -92 58 -48 0 -72 -14 -82 -48 -12 -41 -36 -187
-35 -216 l1 -31 8 30 c4 17 15 64 25 105 27 114 31 120 82 120 42 0 43 -1 43
-33 0 -42 -42 -189 -64 -222 -22 -33 -65 -33 -96 0 -22 23 -23 30 -17 115 6
81 5 90 -11 90 -9 0 -26 3 -38 6 -18 5 -23 -4 -48 -74 -33 -95 -68 -150 -101
-158 -14 -3 -59 -4 -99 -2 -128 6 -147 45 -106 214 10 44 25 93 31 108 13 28
13 28 89 21 105 -9 139 -21 147 -52 6 -26 -33 -166 -64 -226 -8 -16 -12 -31
-10 -34 12 -11 49 47 77 120 40 102 39 170 -3 201 -23 17 -42 20 -133 21 -102
0 -107 -1 -126 -25 -12 -17 -24 -66 -37 -150 -15 -99 -20 -119 -26 -96 -4 16
-5 75 -2 132 l6 104 -92 2 c-84 1 -107 2 -144 7 -7 0 -13 8 -13 16 0 13 22 15
135 15 80 0 135 4 135 10 0 19 85 32 173 26 117 -8 151 -23 179 -80 20 -42 25
-46 58 -46 25 0 43 7 56 21 10 12 34 28 53 36 29 12 33 18 28 43 l-6 28 57
-34 c90 -54 212 -84 198 -49 -3 9 -13 44 -21 78 -37 144 -87 268 -138 340
l-20 29 30 -16 c81 -41 210 65 249 204 l6 25 -22 -28 c-12 -15 -35 -34 -50
-42 -40 -21 -130 -19 -194 4 -50 17 -231 121 -212 121 4 0 34 -6 65 -14 63
-16 161 -29 161 -22 0 9 -145 123 -209 164 -98 64 -253 118 -396 137 l-50 7
40 19 c54 27 112 84 141 142 13 26 23 47 22 47 -2 -1 -18 -14 -36 -29z m2278
-640 c0 -23 -19 -31 -76 -31 -36 0 -44 3 -44 18 0 28 9 32 67 32 45 0 53 -3
53 -19z m-3 -97 c8 -22 -14 -34 -68 -34 -48 0 -68 17 -46 39 18 18 106 14 114
-5z m1423 -83 c0 -26 1 -26 -520 -51 -637 -30 -819 -40 -877 -46 -43 -5 -54
-3 -59 10 -4 9 -4 19 -1 22 7 7 203 21 572 39 176 9 419 22 540 29 332 20 345
20 345 -3z m-989 -165 c-8 -9 -59 -15 -163 -20 -84 -4 -188 -9 -230 -13 -75
-6 -78 -5 -78 16 0 11 1 21 3 22 1 1 101 6 222 13 219 12 268 8 246 -18z
m-205 -97 c13 -21 -13 -28 -140 -35 -122 -7 -128 -6 -124 12 2 15 15 20 53 25
89 11 203 10 211 -2z m764 -64 c0 -9 -6 -17 -12 -20 -7 -2 -155 -11 -328 -20
-308 -15 -577 -31 -653 -39 -34 -4 -38 -2 -35 17 4 26 22 28 498 56 423 25
530 26 530 6z m-476 -111 c22 -8 21 -44 -1 -44 -10 0 -137 -7 -281 -16 -202
-12 -267 -13 -275 -4 -27 26 20 37 200 45 155 6 335 19 340 23 1 1 8 -1 17 -4z
m-318 -139 c7 -17 -17 -51 -105 -148 -65 -72 -73 -92 -41 -100 29 -8 26 -37
-5 -37 -24 0 -65 31 -65 48 0 13 53 83 79 107 34 30 91 111 91 129 0 20 39 21
46 1z m-139 -11 c8 -21 -14 -34 -59 -34 -31 0 -38 4 -38 19 0 23 13 29 58 30
21 1 35 -5 39 -15z m1580 -49 c3 -9 3 -19 -1 -22 -3 -4 -91 -10 -194 -15 -345
-15 -1026 -48 -1115 -54 -88 -6 -89 -6 -85 18 l3 23 560 27 c308 15 589 28
625 30 166 10 200 8 207 -7z m-151 -116 c16 -27 -23 -34 -269 -45 -594 -29
-1058 -46 -1064 -41 -3 3 -3 13 0 20 4 11 37 16 139 21 134 6 882 43 993 49
144 8 194 7 201 -4z m-1259 -184 c3 -9 3 -18 0 -21 -11 -11 -259 -19 -267 -9
-17 21 6 34 65 38 154 9 195 7 202 -8z m-2750 -50 c31 -8 77 -15 101 -15 l44
0 -31 -35 c-42 -48 -47 -75 -26 -151 20 -74 36 -88 86 -74 32 9 36 7 84 -40
27 -27 62 -55 76 -62 l26 -13 -13 -60 c-27 -123 -150 -566 -158 -566 -4 0 -37
37 -73 81 l-66 82 16 27 16 28 -105 159 c-131 196 -140 215 -69 139 34 -36 55
-52 52 -40 -3 11 -8 47 -12 80 -8 73 -32 171 -50 205 -13 22 -14 23 -15 5 -1
-11 -7 -33 -15 -50 -14 -29 -14 -29 -9 20 3 28 1 70 -6 93 -10 38 -13 42 -27
30 -9 -7 -4 7 12 32 33 54 95 140 100 140 2 0 30 -7 62 -15z m3153 -54 c0 -25
-38 -28 -397 -36 -272 -6 -273 -6 -273 14 0 17 7 21 38 22 148 6 463 16 540
17 85 2 92 0 92 -17z m-185 -111 c0 -20 -48 -26 -287 -35 -197 -7 -198 -7
-198 14 0 13 7 22 18 22 72 6 340 16 397 15 55 -1 70 -4 70 -16z m-140 -110
c0 -18 -66 -27 -230 -31 -106 -3 -110 -2 -113 19 -3 20 1 21 85 25 182 7 258
3 258 -13z m-80 -105 c0 -19 -8 -20 -133 -23 -124 -2 -133 -1 -130 15 3 15 18
19 108 24 150 8 155 7 155 -16z m615 -69 c0 -8 -4 -17 -9 -20 -5 -3 -163 -12
-352 -21 -189 -8 -383 -17 -431 -20 -83 -4 -88 -4 -88 15 0 26 10 28 235 35
105 4 244 10 310 14 223 14 335 13 335 -3z m2103 -668 c3 -68 6 -185 7 -260 1
-129 0 -138 -18 -138 -13 0 -21 11 -28 38 l-9 37 -98 3 -98 3 113 219 c62 121
115 220 119 220 3 0 9 -55 12 -122z m-5475 -202 c63 -70 134 -142 158 -159 24
-17 43 -32 41 -33 -5 -5 -417 -8 -422 -3 -5 6 22 195 47 323 l11 59 25 -29
c13 -16 76 -87 140 -158z m4590 -18 c2 -43 -1 -78 -5 -78 -4 0 -18 -3 -31 -6
-23 -7 -23 -6 -21 67 2 91 6 101 33 97 19 -3 21 -10 24 -80z m-3090 -134 c12
-8 22 -22 22 -30 0 -11 -18 -14 -91 -14 l-92 0 26 20 c52 41 99 49 135 24z
m-3098 -224 c0 -5 -2 -10 -4 -10 -3 0 -8 5 -11 10 -3 6 -1 10 4 10 6 0 11 -4
11 -10z m40 -5 c0 -8 -4 -15 -10 -15 -5 0 -7 7 -4 15 4 8 8 15 10 15 2 0 4 -7
4 -15z m95 5 c3 -6 -1 -7 -9 -4 -18 7 -21 14 -7 14 6 0 13 -4 16 -10z m-156
-41 c13 -11 21 -22 17 -26 -3 -4 -12 2 -20 12 -7 10 -18 15 -24 11 -7 -4 -12
-1 -12 8 0 21 10 20 39 -5z m3539 -251 c3 -147 3 -147 30 -168 l27 -22 675 3
c534 3 679 1 695 -9 11 -7 13 -11 5 -9 -20 5 -54 -28 -45 -44 5 -7 4 -10 -2
-6 -5 3 -25 -7 -44 -22 -19 -15 -44 -33 -57 -40 -12 -7 -20 -16 -17 -21 4 -6
-1 -7 -11 -3 -13 5 -15 3 -9 -7 5 -8 4 -11 -2 -7 -11 7 -166 -53 -238 -91
l-40 -21 215 1 c118 1 192 3 163 5 -40 3 -51 7 -46 18 3 8 9 12 14 9 5 -3 9 1
9 10 0 8 -6 17 -12 20 -7 3 -4 4 7 3 14 -2 19 -9 18 -25 -2 -14 3 -22 12 -22
8 0 16 6 16 13 1 6 3 19 4 27 1 8 3 21 4 28 0 6 6 12 12 12 8 0 8 -4 0 -14 -8
-10 -9 -16 -1 -21 5 -3 10 -1 10 5 0 7 6 10 14 7 7 -3 24 1 36 10 19 14 22 13
34 -2 8 -11 15 -14 19 -8 4 6 0 13 -8 17 -8 3 -15 13 -15 21 0 15 2 15 17 0
21 -22 80 -14 99 14 28 39 43 48 71 44 20 -3 24 -2 14 5 -11 8 -9 12 10 22 13
7 28 18 32 24 6 8 10 7 14 -1 7 -18 33 -16 33 2 0 8 6 15 14 15 7 0 19 7 26
15 10 13 -8 15 -146 18 -88 1 202 4 644 5 l802 2 0 -980 0 -981 -87 3 -88 3 3
418 c3 285 0 428 -7 450 -7 19 -25 47 -42 63 l-30 29 -256 5 -255 5 140 92
c154 101 292 225 382 343 30 40 74 97 98 126 48 61 52 71 20 50 -13 -8 -59
-27 -103 -41 -89 -30 -237 -102 -304 -148 -122 -84 -257 -263 -287 -381 -5
-23 -24 -47 -24 -32 0 16 69 176 134 309 40 84 76 162 80 174 4 12 25 58 47
103 21 44 39 84 39 89 0 4 9 16 20 26 11 10 20 22 20 27 0 15 -57 -23 -136
-90 -124 -105 -200 -227 -228 -364 -9 -42 -16 -87 -17 -100 0 -13 -6 0 -13 27
-23 91 -70 174 -173 302 -22 28 -46 60 -51 70 -20 34 -20 8 -1 -78 25 -116 28
-122 122 -278 82 -137 121 -211 113 -218 -2 -2 -20 25 -40 60 -48 87 -150 181
-242 224 -96 44 -159 59 -300 73 -66 6 -129 13 -141 16 -36 7 -27 -10 17 -35
22 -12 45 -30 52 -39 22 -29 111 -98 168 -130 30 -17 138 -64 240 -104 l185
-73 -235 -5 c-206 -4 -239 -7 -264 -23 -55 -36 -56 -48 -56 -517 l0 -430 -927
0 c-918 0 -927 0 -970 21 -89 43 -217 185 -193 214 8 10 1 57 -29 192 -22 98
-65 293 -96 433 -133 609 -207 916 -233 970 -51 103 -115 133 -447 209 -184
41 -571 123 -772 162 l-113 22 0 36 0 36 1088 0 1087 0 3 -147z m1682 -237 c0
-12 -20 -25 -27 -18 -7 7 6 27 18 27 5 0 9 -4 9 -9z m-85 -33 c-4 -18 -10 -37
-13 -42 -6 -11 -32 23 -32 43 0 11 4 10 14 -5 14 -18 15 -18 21 9 10 38 18 34
10 -5z m-115 -8 c0 -5 -5 -10 -11 -10 -5 0 -7 5 -4 10 3 6 8 10 11 10 2 0 4
-4 4 -10z m51 -27 c11 -13 11 -17 2 -20 -7 -3 -13 -11 -13 -19 0 -8 -4 -14
-10 -14 -13 0 -13 6 3 30 10 17 9 22 -3 30 -8 5 -10 10 -4 10 6 0 18 -7 25
-17z m39 -27 c0 -3 -4 -8 -10 -11 -5 -3 -10 -1 -10 4 0 6 5 11 10 11 6 0 10
-2 10 -4z m-120 -16 c0 -5 -7 -10 -15 -10 -8 0 -15 5 -15 10 0 6 7 10 15 10 8
0 15 -4 15 -10z m-2696 -705 c25 -93 58 -217 75 -275 174 -611 221 -766 235
-776 9 -6 16 -19 16 -28 0 -14 -18 -16 -149 -16 l-149 0 -17 27 c-14 21 -17
46 -16 123 2 101 -3 115 -48 139 -15 9 -486 127 -763 192 l-98 23 0 63 c0 59
2 63 25 69 48 12 55 36 55 188 0 152 -8 176 -57 176 -23 0 -24 2 -21 78 l3 77
335 5 c301 5 340 7 380 24 57 25 111 58 130 81 8 9 15 13 17 9 1 -5 22 -85 47
-179z m-1114 -932 c0 -106 -2 -119 -22 -140 l-21 -23 -331 0 -331 1 -27 23
c-22 20 -25 28 -19 57 l7 34 279 63 c154 34 316 71 360 81 44 10 86 19 93 20
9 1 12 -28 12 -116z m425 63 c99 -24 253 -58 343 -76 l162 -33 0 -40 c0 -28
-6 -44 -22 -58 -21 -17 -45 -18 -350 -19 l-327 0 -18 28 c-16 23 -18 43 -15
139 4 110 4 113 25 108 12 -3 103 -25 202 -49z"/>
<path d="M6970 3340 c0 -5 5 -10 10 -10 6 0 10 5 10 10 0 6 -4 10 -10 10 -5 0
-10 -4 -10 -10z"/>
<path d="M6805 3280 c-3 -5 1 -10 9 -10 9 0 16 5 16 10 0 6 -4 10 -9 10 -6 0
-13 -4 -16 -10z"/>
<path d="M6738 3253 c12 -2 32 -2 45 0 12 2 2 4 -23 4 -25 0 -35 -2 -22 -4z"/>
<path d="M6690 3210 c0 -5 5 -10 10 -10 6 0 10 5 10 10 0 6 -4 10 -10 10 -5 0
-10 -4 -10 -10z"/>
<path d="M6615 3170 c3 -5 8 -10 11 -10 2 0 4 5 4 10 0 6 -5 10 -11 10 -5 0
-7 -4 -4 -10z"/>
<path d="M5915 3003 c-38 -20 -80 -44 -92 -53 -20 -15 -21 -19 -7 -24 9 -3
169 -5 357 -4 188 1 315 4 282 7 l-60 6 -3 35 c-2 29 0 32 8 18 13 -22 26 -23
33 -4 4 10 1 13 -9 9 -8 -3 -14 1 -14 11 0 11 9 16 31 16 26 0 31 -3 26 -20
-3 -11 -1 -20 4 -20 5 0 9 10 9 21 0 19 2 20 17 8 14 -12 16 -12 11 1 -5 13
10 16 85 18 50 2 93 5 96 8 2 2 -155 4 -350 4 l-354 -1 -70 -36z m415 -29 c0
-9 6 -14 13 -11 6 2 11 11 9 21 -2 9 2 16 8 16 5 0 10 -6 10 -12 0 -7 3 -23 6
-35 5 -19 2 -23 -19 -23 -19 0 -26 7 -32 27 -5 21 -8 24 -15 13 -5 -8 -12 -11
-16 -7 -9 9 16 38 27 31 5 -3 9 -12 9 -20z m-27 -31 c-13 -2 -33 -2 -45 0 -13
2 -3 4 22 4 25 0 35 -2 23 -4z"/>
<path d="M6720 3029 c0 -5 5 -7 10 -4 6 3 10 8 10 11 0 2 -4 4 -10 4 -5 0 -10
-5 -10 -11z"/>
<path d="M6545 2980 c10 -11 20 -20 22 -20 2 0 -2 9 -9 20 -7 11 -17 20 -22
20 -5 0 -1 -9 9 -20z"/>
<path d="M6563 2923 c9 -2 23 -2 30 0 6 3 -1 5 -18 5 -16 0 -22 -2 -12 -5z"/>
<path d="M5664 2831 c-21 -16 -55 -42 -74 -59 -31 -27 -32 -29 -12 -28 13 0
27 8 32 16 6 9 10 10 10 3 0 -6 9 -11 20 -10 11 1 20 4 20 8 0 4 8 10 18 14
14 5 15 4 5 -6 -18 -18 -16 -25 7 -26 11 -1 20 2 20 7 0 5 9 6 21 1 12 -4 42
-4 68 0 27 4 51 3 59 -3 11 -10 17 1 13 25 0 4 4 7 10 7 5 0 8 4 4 10 -3 5
-13 6 -22 3 -11 -4 -14 -3 -9 6 5 7 15 10 23 7 21 -8 39 4 22 15 -11 7 -10 9
3 9 9 0 19 6 22 13 4 6 5 3 2 -9 -2 -11 3 -29 10 -39 8 -11 14 -13 14 -6 0 8
8 10 23 6 18 -5 19 -4 7 5 -13 10 -12 11 5 7 11 -3 29 -8 40 -12 16 -6 17 -5
5 4 -11 9 -4 10 30 5 33 -4 41 -3 30 5 -8 6 -32 11 -54 11 -34 0 -37 2 -25 16
8 10 15 12 17 5 5 -14 79 -15 87 -1 3 6 12 10 18 10 7 0 6 -4 -3 -10 -22 -14
-5 -23 20 -10 20 11 21 10 15 -11 -7 -22 -7 -22 10 -6 10 10 25 15 35 12 11
-3 20 0 24 10 3 8 13 15 21 15 9 0 13 -4 10 -10 -3 -6 4 -10 17 -10 17 0 19 3
9 9 -11 7 -11 9 0 14 8 3 -121 6 -287 6 l-301 1 -39 -29z m326 -1 c0 -5 -12
-10 -27 -9 l-28 1 25 8 c14 4 26 8 28 9 1 1 2 -3 2 -9z m-117 -7 c-7 -2 -19
-2 -25 0 -7 3 -2 5 12 5 14 0 19 -2 13 -5z m-128 -31 c-3 -3 -11 0 -18 7 -9
10 -8 11 6 5 10 -3 15 -9 12 -12z m-75 -6 c0 -2 -9 -6 -20 -9 -11 -3 -20 -1
-20 4 0 5 9 9 20 9 11 0 20 -2 20 -4z m187 -12 c-3 -3 -12 -4 -19 -1 -8 3 -5
6 6 6 11 1 17 -2 13 -5z"/>
<path d="M6350 2849 c0 -6 -7 -8 -16 -5 -8 3 -12 2 -9 -3 9 -15 44 -9 38 6 -6
16 -13 17 -13 2z"/>
<path d="M6240 2810 c0 -5 5 -10 10 -10 6 0 10 5 10 10 0 6 -4 10 -10 10 -5 0
-10 -4 -10 -10z"/>
<path d="M6308 2813 c7 -3 16 -2 19 1 4 3 -2 6 -13 5 -11 0 -14 -3 -6 -6z"/>
<path d="M6115 2800 c-3 -6 1 -7 9 -4 18 7 21 14 7 14 -6 0 -13 -4 -16 -10z"/>
<path d="M6185 2800 c-3 -6 1 -7 9 -4 18 7 21 14 7 14 -6 0 -13 -4 -16 -10z"/>
<path d="M5905 2790 c-3 -5 -1 -10 4 -10 6 0 11 5 11 10 0 6 -2 10 -4 10 -3 0
-8 -4 -11 -10z"/>
<path d="M5890 2761 c0 -6 5 -13 10 -16 6 -3 10 1 10 9 0 9 -4 16 -10 16 -5 0
-10 -4 -10 -9z"/>
<path d="M5498 2671 c-1 -6 -23 -33 -46 -60 l-44 -51 -71 0 c-38 0 -68 -2 -65
-5 11 -11 169 -7 184 6 13 10 17 10 24 -2 16 -25 32 3 21 34 -14 35 -25 35
-16 0 5 -22 4 -25 -6 -16 -10 10 -15 9 -25 -5 -7 -9 -16 -14 -20 -9 -4 4 6 21
22 38 l29 30 22 -26 c21 -24 23 -25 23 -6 0 14 6 21 20 21 11 0 20 -4 20 -10
0 -5 5 -10 11 -10 6 0 8 9 4 20 -5 15 -3 18 9 14 9 -3 16 -1 16 5 0 6 7 11 15
11 18 0 20 -17 4 -22 -7 -2 5 -4 25 -4 25 0 32 3 21 9 -13 7 -13 10 -1 22 18
18 166 20 166 2 0 -9 2 -9 8 0 5 8 47 13 127 16 66 1 -13 4 -177 5 -178 1
-298 -2 -300 -7z m31 -20 c9 -6 10 -11 2 -15 -6 -4 -11 -3 -11 3 0 6 -7 7 -17
4 -11 -4 -14 -3 -9 5 8 14 16 15 35 3z"/>
<path d="M6123 2673 c9 -2 23 -2 30 0 6 3 -1 5 -18 5 -16 0 -22 -2 -12 -5z"/>
<path d="M6178 2673 c7 -3 16 -2 19 1 4 3 -2 6 -13 5 -11 0 -14 -3 -6 -6z"/>
<path d="M6248 2673 c6 -2 18 -2 25 0 6 3 1 5 -13 5 -14 0 -19 -2 -12 -5z"/>
<path d="M6378 2673 c12 -2 30 -2 40 0 9 3 -1 5 -23 4 -22 0 -30 -2 -17 -4z"/>
<path d="M6458 2673 c7 -3 16 -2 19 1 4 3 -2 6 -13 5 -11 0 -14 -3 -6 -6z"/>
<path d="M5730 2630 c0 -5 5 -10 10 -10 6 0 10 5 10 10 0 6 -4 10 -10 10 -5 0
-10 -4 -10 -10z"/>
<path d="M5603 2598 c2 -23 5 -25 22 -15 16 8 17 11 5 15 -8 3 -18 10 -22 15
-3 6 -5 -1 -5 -15z"/>
<path d="M5700 2616 c0 -2 7 -9 15 -16 13 -11 14 -10 9 4 -5 14 -24 23 -24 12z"/>
<path d="M5546 2601 c-5 -8 -3 -16 4 -21 7 -4 10 -13 6 -19 -5 -7 -1 -9 9 -5
10 4 12 10 7 18 -5 6 -11 18 -14 26 -3 11 -6 11 -12 1z"/>
<path d="M5035 2479 c-4 -6 -4 -13 -1 -16 3 -4 6 -1 6 5 0 7 9 12 21 12 11 0
17 -4 14 -10 -3 -5 1 -10 10 -10 9 0 14 4 11 9 -4 5 0 12 6 14 7 3 -4 6 -24 6
-20 1 -40 -4 -43 -10z"/>
<path d="M5202 2485 c7 -7 229 -8 236 -1 3 4 -50 6 -118 6 -68 0 -121 -2 -118
-5z"/>
<path d="M5463 2483 c9 -2 23 -2 30 0 6 3 -1 5 -18 5 -16 0 -22 -2 -12 -5z"/>
<path d="M5698 2483 c7 -3 16 -2 19 1 4 3 -2 6 -13 5 -11 0 -14 -3 -6 -6z"/>
<path d="M4798 2456 c-31 -27 -24 -40 27 -50 21 -5 24 -4 11 2 -15 6 -17 11
-7 17 10 6 10 9 1 15 -7 4 -9 13 -6 19 8 12 27 15 25 4 -1 -5 0 -11 1 -15 1
-5 3 -13 4 -20 0 -6 7 -13 14 -16 8 -2 10 2 5 14 -4 11 -3 15 4 11 6 -4 13 3
16 14 3 12 10 18 16 15 6 -4 8 -13 4 -21 -3 -8 0 -15 6 -15 6 0 11 7 11 15 0
8 5 15 10 15 6 0 10 4 10 9 0 5 -18 9 -41 9 -31 1 -39 -3 -35 -14 3 -8 1 -14
-4 -14 -6 0 -10 7 -10 15 0 22 -31 18 -62 -9z m22 -26 c0 -5 -7 -10 -16 -10
-8 0 -12 5 -9 10 3 6 10 10 16 10 5 0 9 -4 9 -10z"/>
<path d="M4967 2462 c-10 -10 -17 -23 -17 -28 0 -5 5 -1 11 9 5 9 17 17 24 17
8 0 15 5 15 10 0 16 -15 12 -33 -8z"/>
<path d="M2030 7370 c0 -5 5 -10 10 -10 6 0 10 5 10 10 0 6 -4 10 -10 10 -5 0
-10 -4 -10 -10z"/>
<path d="M7910 7375 c0 -5 5 -17 10 -25 5 -8 10 -10 10 -5 0 6 -5 17 -10 25
-5 8 -10 11 -10 5z"/>
<path d="M2276 7361 c-3 -5 5 -8 19 -7 14 0 25 4 25 9 0 10 -38 9 -44 -2z"/>
<path d="M2488 7363 c7 -3 16 -2 19 1 4 3 -2 6 -13 5 -11 0 -14 -3 -6 -6z"/>
<path d="M2440 7350 c0 -5 4 -10 9 -10 6 0 13 5 16 10 3 6 -1 10 -9 10 -9 0
-16 -4 -16 -10z"/>
<path d="M7562 7330 c0 -19 2 -27 5 -17 2 9 2 25 0 35 -3 9 -5 1 -5 -18z"/>
<path d="M2400 7339 c0 -5 5 -7 10 -4 6 3 10 8 10 11 0 2 -4 4 -10 4 -5 0 -10
-5 -10 -11z"/>
<path d="M2495 7340 c3 -5 8 -10 11 -10 2 0 4 5 4 10 0 6 -5 10 -11 10 -5 0
-7 -4 -4 -10z"/>
<path d="M2630 7341 c0 -6 4 -13 10 -16 6 -3 7 1 4 9 -7 18 -14 21 -14 7z"/>
<path d="M7996 7341 c-4 -7 -5 -15 -2 -18 9 -9 19 4 14 18 -4 11 -6 11 -12 0z"/>
<path d="M2065 7320 c3 -5 11 -10 16 -10 6 0 7 5 4 10 -3 6 -11 10 -16 10 -6
0 -7 -4 -4 -10z"/>
<path d="M8169 7283 c-12 -16 -12 -17 2 -6 9 7 20 9 24 5 5 -4 5 -1 1 6 -9 16
-11 15 -27 -5z"/>
<path d="M8998 5453 l-108 -4 0 -114 0 -115 150 0 150 0 -1 73 c0 39 -4 92 -7
117 -8 52 5 49 -184 43z"/>
<path d="M740 5192 c-6 -2 -10 -45 -10 -108 l0 -104 58 0 c33 0 114 -3 180 -7
l122 -6 0 117 0 117 -170 -3 c-93 -2 -174 -4 -180 -6z"/>
<path d="M1120 5085 l0 -115 55 0 55 0 0 115 0 115 -55 0 -55 0 0 -115z"/>
<path d="M8894 5191 c-2 -2 -4 -51 -4 -108 l0 -103 155 0 155 0 0 104 0 105
-151 3 c-83 2 -153 1 -155 -1z"/>
<path d="M828 4953 l-98 -4 0 -104 0 -105 180 0 180 0 0 110 0 110 -82 -2
c-46 -1 -127 -4 -180 -5z"/>
<path d="M1120 4845 l0 -115 55 0 55 0 0 115 0 115 -55 0 -55 0 0 -115z"/>
<path d="M8892 4848 l3 -103 144 -3 c109 -2 146 1 153 10 4 7 8 55 8 106 l0
92 -155 0 -156 0 3 -102z"/>
<path d="M766 4712 l-29 -4 6 -81 c10 -131 8 -127 88 -127 65 0 96 -11 63 -24
-9 -3 -42 -6 -75 -6 l-59 0 6 -27 c11 -54 13 -56 45 -49 18 3 28 2 24 -4 -3
-6 1 -7 9 -4 9 3 16 1 16 -5 0 -6 -5 -11 -12 -11 -9 0 -9 -3 0 -12 10 -10 15
-10 22 2 9 13 10 13 11 0 0 -10 3 -9 8 5 7 16 9 14 14 -14 7 -32 27 -35 27 -4
0 10 6 13 16 9 9 -3 18 -6 20 -6 2 0 4 -5 4 -11 0 -5 -4 -7 -10 -4 -11 7 -14
-8 -4 -18 8 -7 55 23 50 32 -2 3 11 7 30 8 27 1 34 -2 34 -17 0 -10 -4 -22
-10 -25 -14 -9 -13 -26 2 -23 7 2 15 -10 18 -27 4 -16 8 80 9 214 l1 243 -147
-3 c-82 -2 -161 -5 -177 -7z"/>
<path d="M1121 4378 c0 -189 4 -361 9 -383 l8 -40 1 49 c1 46 2 48 16 30 14
-18 14 -18 16 6 l1 25 8 -25 c7 -21 8 -19 9 17 1 23 6 45 13 49 8 5 9 2 5 -9
-3 -10 -3 -17 2 -17 18 0 21 52 21 343 l0 297 -55 0 -55 0 1 -342z"/>
<path d="M8898 4639 c3 -65 5 -70 23 -66 13 3 24 -2 32 -14 6 -10 15 -19 20
-19 4 0 5 5 1 12 -5 8 -2 9 10 5 10 -4 20 -7 22 -7 2 0 4 -5 4 -11 0 -7 -13
-10 -35 -7 -25 3 -31 1 -24 -8 5 -6 21 -9 37 -7 21 4 24 2 12 -6 -11 -8 9 -11
77 -11 l91 0 6 28 c3 15 8 62 12 105 l6 77 -148 0 -149 0 3 -71z m82 28 c11
-5 9 -6 -4 -4 -11 1 -21 9 -23 17 -3 10 -2 11 4 4 4 -6 15 -14 23 -17z m-43
-54 c-3 -10 -5 -4 -5 12 0 17 2 24 5 18 2 -7 2 -21 0 -30z m34 -46 c-8 -8 -11
-7 -11 4 0 20 13 34 18 19 3 -7 -1 -17 -7 -23z m39 3 c0 -5 -5 -10 -11 -10 -5
0 -7 5 -4 10 3 6 8 10 11 10 2 0 4 -4 4 -10z"/>
<path d="M9064 4459 c28 -4 53 -6 57 -3 4 2 9 -1 11 -8 3 -9 9 -8 22 5 17 16
14 17 -61 16 -76 -1 -77 -2 -29 -10z"/>
<path d="M800 4366 c0 -4 7 -14 15 -22 8 -9 15 -11 15 -6 0 5 -7 15 -15 22 -8
7 -15 9 -15 6z"/>
<path d="M781 4334 c0 -11 3 -14 6 -6 3 7 2 16 -1 19 -3 4 -6 -2 -5 -13z"/>
<path d="M1040 4340 c0 -5 5 -10 10 -10 6 0 10 5 10 10 0 6 -4 10 -10 10 -5 0
-10 -4 -10 -10z"/>
<path d="M1003 4325 c-9 -10 -7 -14 13 -18 26 -5 31 4 12 21 -9 7 -17 6 -25
-3z"/>
<path d="M945 4290 c-8 -13 5 -13 25 0 13 8 13 10 -2 10 -9 0 -20 -4 -23 -10z"/>
<path d="M1150 4001 c0 -5 7 -11 15 -15 8 -3 15 -1 15 3 0 5 -7 11 -15 15 -8
3 -15 1 -15 -3z"/>
<path d="M1405 3850 c4 -6 11 -8 16 -5 14 9 11 15 -7 15 -8 0 -12 -5 -9 -10z"/>
<path d="M8961 2461 c-6 -11 -11 -51 -11 -88 0 -85 23 -135 111 -243 33 -41
68 -90 77 -107 9 -18 19 -33 23 -33 12 0 22 108 16 170 -13 119 -87 254 -165
298 -40 22 -41 22 -51 3z"/>
<path d="M1537 2266 c-27 -7 -61 -22 -75 -33 -28 -20 -88 -120 -79 -130 3 -2
40 1 82 8 92 14 150 49 202 122 l35 47 -59 -1 c-32 0 -80 -6 -106 -13z"/>
<path d="M9385 1979 c-54 -28 -77 -51 -103 -100 -12 -22 -22 -42 -22 -44 0 -2
20 7 44 21 28 16 72 28 127 35 147 18 216 39 203 61 -4 5 -25 19 -48 29 -58
26 -150 25 -201 -2z"/>
</g>
</svg>
